<svg width="91" height="57" viewBox="0 0 91 57" fill="none" xmlns="http://www.w3.org/2000/svg">
<path d="M62.0766 0C52.1256 0 43.3767 5.12719 38.3211 12.8826C35.8046 5.39394 28.7268 0 20.3879 0C9.93978 0 1.46892 8.46857 1.46892 18.9139C1.46892 19.5485 1.48015 20.2813 1.5616 20.7924H14.1331C13.8466 19.3547 14.0039 17.7009 14.3746 16.5356C15.22 13.8962 17.3715 12.1048 20.2924 12.1048C22.9466 12.1048 25.084 13.6463 25.9631 15.9207C26.6821 17.7851 26.2945 19.7085 24.7498 21.8341C24.1038 22.7242 0 55.8881 0 55.8881H39.3547L43.7053 49.8989C48.6513 54.1135 55.0662 56.6602 62.0738 56.6602C77.7236 56.6602 90.4102 43.977 90.4102 28.3315C90.4102 12.686 77.7264 0 62.0766 0ZM22.0141 44.606L33.743 28.4691C33.7711 34.4752 35.6698 40.0376 38.8828 44.606H22.0141ZM52.8221 13.1634C55.5437 11.546 58.4928 10.5633 62.0794 10.5633C65.6661 10.5633 68.6151 11.546 71.3367 13.1634C71.3676 13.1802 71.3816 13.2195 71.3648 13.2504C71.3507 13.2841 71.3142 13.2897 71.2777 13.2813C67.8371 12.5372 62.6103 15.5079 62.1159 15.8056C62.1047 15.8112 62.0935 15.8196 62.0794 15.8196C62.0654 15.8196 62.0541 15.8112 62.0429 15.8056C61.5486 15.5079 56.3217 12.5372 52.8811 13.2813C52.8446 13.2897 52.8109 13.2841 52.794 13.2504C52.7772 13.2195 52.7912 13.183 52.8221 13.1634ZM48.0362 39.1194C48.0053 39.1391 47.9632 39.1194 47.9407 39.0913C45.6629 36.1037 44.3063 32.3749 44.3063 28.3287C44.3063 23.3981 46.3145 18.9392 49.5585 15.7213C49.581 15.6989 49.609 15.6764 49.6371 15.6624C49.9349 15.5079 51.7773 14.9351 57.1952 20.3263C57.212 20.3403 57.2261 20.36 57.2261 20.3852C57.2261 20.4049 57.2148 20.4217 57.2008 20.4358C53.6254 24.6925 46.6993 34.8402 48.0531 39.0268C48.0699 39.0604 48.0671 39.1026 48.0362 39.1194ZM73.7746 41.6999C70.6486 44.4347 66.5592 46.0914 62.0794 46.0914C57.5996 46.0914 53.5074 44.4347 50.3842 41.6999C47.6093 38.8779 56.7065 28.8819 62.0204 24.8413C62.0345 24.8301 62.0598 24.8133 62.0794 24.8133C62.0991 24.8133 62.1244 24.8301 62.1384 24.8413C67.4495 28.8819 76.5495 38.8779 73.7746 41.6999ZM76.2125 39.0913C76.19 39.1194 76.1507 39.1391 76.117 39.1194C76.0861 39.1026 76.0833 39.0633 76.0974 39.0268C77.4511 34.8402 70.5278 24.6897 66.9496 20.4358C66.9384 20.4217 66.9243 20.4049 66.9243 20.3852C66.9243 20.36 66.9384 20.3403 66.9552 20.3263C72.3759 14.9351 74.2156 15.5079 74.5133 15.6624C74.5414 15.6764 74.5694 15.6989 74.5919 15.7213C77.8331 18.9392 79.8441 23.3981 79.8441 28.3287C79.8469 32.3749 78.4931 36.1037 76.2125 39.0913Z" fill="#107C10"/>
</svg>
